<?xml version="1.0" standalone="no"?>
<!DOCTYPE svg PUBLIC "-//W3C//DTD SVG 20010904//EN"
 "http://www.w3.org/TR/2001/REC-SVG-20010904/DTD/svg10.dtd">
<svg version="1.0" xmlns="http://www.w3.org/2000/svg"
 width="920.000000pt" height="400.000000pt" viewBox="0 0 920.000000 400.000000"
 preserveAspectRatio="xMidYMid meet">

<g transform="translate(0.000000,400.000000) scale(0.100000,-0.100000)"
fill="#000000" stroke="none">
<path d="M4220 3926 c-616 -71 -1141 -313 -1522 -702 -295 -301 -452 -614
-513 -1023 -20 -140 -19 -252 5 -407 33 -220 90 -395 187 -574 318 -589 990
-1018 1750 -1116 65 -8 154 -20 198 -26 157 -21 478 4 740 57 854 173 1534
750 1715 1455 76 294 77 540 5 821 -130 502 -497 943 -1016 1217 -272 145
-542 233 -864 282 -177 28 -515 35 -685 16z m700 -274 c265 -50 431 -103 645
-206 533 -259 880 -666 990 -1166 26 -118 31 -343 11 -475 -113 -729 -788
-1307 -1691 -1447 -199 -31 -539 -30 -740 0 -265 41 -470 105 -700 217 -301
147 -527 330 -709 572 -196 261 -295 550 -296 858 0 309 104 612 298 870 67
88 235 258 327 330 294 230 656 385 1036 444 74 11 148 23 164 25 17 2 149 3
295 1 210 -3 287 -8 370 -23z"/>
<path d="M3150 2544 c-213 -387 -271 -500 -264 -513 6 -9 129 -231 274 -493
l264 -478 24 43 c13 23 136 245 274 494 l250 452 -273 493 c-149 271 -273 494
-273 495 -1 1 -125 -221 -276 -493z"/>
<path d="M4510 3011 c0 -5 -77 -148 -171 -317 -94 -170 -211 -382 -261 -472
-49 -89 -92 -170 -95 -180 -3 -12 71 -154 194 -378 110 -197 231 -416 269
-486 38 -70 71 -128 74 -128 4 0 369 655 519 932 14 26 28 48 31 47 3 0 58
-98 124 -217 242 -442 421 -762 426 -762 3 0 12 15 21 33 9 17 129 236 268
486 138 250 251 459 251 464 0 5 -26 57 -59 116 -142 259 -378 684 -428 774
l-55 99 -92 -165 c-50 -90 -172 -311 -271 -490 -99 -180 -182 -327 -185 -327
-3 0 -127 220 -275 490 -149 269 -273 490 -277 490 -5 0 -8 -4 -8 -9z"/>
</g>
</svg>
